<?xml version="1.0" encoding="UTF-8" standalone="no"?>
<!-- Created with Inkscape (http://www.inkscape.org/) -->

<svg
   width="134.99998mm"
   height="137.75432mm"
   viewBox="0 0 134.99999 137.75432"
   version="1.1"
   id="svg1"
   xml:space="preserve"
   inkscape:version="1.4.3 (fcd0343856, 2026-01-01)"
   sodipodi:docname="analyseur.svg"
   xmlns:inkscape="http://www.inkscape.org/namespaces/inkscape"
   xmlns:sodipodi="http://sodipodi.sourceforge.net/DTD/sodipodi-0.dtd"
   xmlns="http://www.w3.org/2000/svg"
   xmlns:svg="http://www.w3.org/2000/svg"><sodipodi:namedview
     id="namedview1"
     pagecolor="#ffffff"
     bordercolor="#000000"
     borderopacity="0.25"
     inkscape:showpageshadow="2"
     inkscape:pageopacity="0.0"
     inkscape:pagecheckerboard="0"
     inkscape:deskcolor="#d1d1d1"
     inkscape:document-units="mm"
     inkscape:zoom="0.51780096"
     inkscape:cx="91.73409"
     inkscape:cy="166.08698"
     inkscape:window-width="1920"
     inkscape:window-height="1008"
     inkscape:window-x="0"
     inkscape:window-y="0"
     inkscape:window-maximized="1"
     inkscape:current-layer="layer1" /><defs
     id="defs1" /><g
     inkscape:label="Layer 1"
     inkscape:groupmode="layer"
     id="layer1"
     transform="translate(-41.656888,-132.18416)"><g
       inkscape:groupmode="layer"
       id="layer2"
       inkscape:label="left"><path
         style="display:inline;fill:#3192b6;fill-opacity:1"
         d="m 93.535913,239.03847 c -1.309688,-0.73472 -2.649141,-1.63084 -2.976563,-1.99138 l -0.595313,-0.65553 v -26.17899 c 0,-25.82622 0.0071,-26.18613 0.529167,-26.70817 0.734781,-0.73478 1.173507,-0.67936 4.357229,0.55038 2.26755,0.87586 2.86896,1.22282 3.18757,1.83894 0.58727,1.13567 0.59265,52.28364 0.006,53.41884 -0.75805,1.46591 -1.48482,1.42172 -4.5077,-0.27409 z m -12.303125,-7.01965 c -1.236927,-0.51484 -2.546615,-1.22634 -2.910417,-1.58113 l -0.661458,-0.64505 0.01506,-17.52172 0.01506,-17.52172 1.469476,-2.02701 c 0.808212,-1.11486 1.963398,-2.92696 2.56708,-4.0269 1.169265,-2.13046 1.817102,-2.68623 2.83379,-2.43106 1.483541,0.37235 1.428984,-0.51116 1.438568,23.29664 l 0.0088,21.92238 -0.7177,0.74912 c -0.394735,0.41201 -0.963315,0.74313 -1.263511,0.73581 -0.300196,-0.007 -1.557842,-0.43453 -2.794769,-0.94936 z m -10.054166,-2.92517 c -1.147572,-0.19364 -4.180925,-1.41874 -4.885992,-1.97335 l -0.677065,-0.53258 0.06955,-9.14305 0.06955,-9.14305 1.719792,-1.0391 c 0.945885,-0.57151 2.318848,-1.62651 3.051028,-2.34444 0.73218,-0.71794 1.515098,-1.30534 1.739817,-1.30534 0.224719,0 0.66746,0.27556 0.983867,0.61236 0.57236,0.60925 0.575288,0.67063 0.575288,12.0589 v 11.44652 l -0.773398,0.7734 c -0.425368,0.42537 -0.871853,0.75718 -0.992187,0.73737 -0.120335,-0.0198 -0.516446,-0.0863 -0.880248,-0.14764 z m 3.669276,-43.26048 c -2.262438,2.23461 -5.256776,3.56275 -5.256776,2.84634 0,-0.7897 3.44704,-8.0441 5.13984,-7.51072 7.683481,2.42099 3.183802,1.63525 0.116936,4.66438 z"
         id="path1"
         inkscape:label="in"
         sodipodi:nodetypes="scsssscccsscccsssscscsssscccssssscsssssssss" /><path
         style="display:inline;fill:#ff6600"
         d="m 60.409696,199.6547 c -1.723335,-1.05078 -2.299332,-3.66801 -1.254285,-5.69925 0.706795,-1.37379 2.452454,-2.33722 3.906193,-2.15582 1.417023,0.17681 2.978538,1.28102 3.379457,2.38974 0.300933,0.83222 0.481895,0.95322 1.993334,1.33288 0.914295,0.22966 1.714417,0.41757 1.778049,0.41757 0.146826,0 2.767584,-4.7769 4.510845,-7.72721 3.169692,-5.36442 2.150582,-4.05646 5.326173,-9.2924 1.319169,-2.20729 1.375413,-2.374 1.026528,-3.04271 -0.789754,-1.51372 -0.267329,-3.96378 1.069399,-5.01525 0.925872,-0.72829 2.818258,-1.01433 3.858903,-0.58328 0.998532,0.4136 2.089101,1.6894 2.286095,2.67437 0.140016,0.70008 0.360654,0.81777 3.187747,1.70031 2.908499,0.90795 3.074349,0.93059 3.910449,0.53383 0.48022,-0.22788 1.09327,-0.41388 1.36231,-0.41334 0.85459,0.002 2.22746,1.03695 2.61951,1.97526 0.760877,1.82105 -0.64125,3.8975 -2.6318,3.8975 -1.22518,0 -2.07991,-0.55912 -2.63143,-1.72136 -0.23863,-0.50289 -0.64338,-0.9745 -0.89944,-1.04803 -0.25607,-0.0735 -1.51191,-0.44236 -2.790769,-0.81962 l -2.325197,-0.68593 -1.087938,0.7881 c -0.782603,0.56691 -1.392385,0.78898 -2.172718,0.79123 -1.057153,0.003 -1.10765,0.0452 -1.982656,1.65365 -1.22161,2.24561 -9.301118,16.40157 -9.549641,16.73176 -0.109531,0.14552 -0.344351,0.71528 -0.521823,1.26614 -0.563526,1.74913 -1.09135,1.87965 -3.848742,0.95172 l -2.379836,-0.80088 -0.661458,0.778 c -1.393821,1.63939 -3.81592,2.136 -5.477259,1.12302 z m 2.951864,-2.02715 c 0.235565,-0.0904 0.602087,-0.50042 0.814494,-0.91117 0.489571,-0.94673 0.144726,-1.98055 -0.804973,-2.41326 -1.485868,-0.67701 -2.960845,1.73187 -1.827353,2.98437 0.468659,0.51786 1.06418,0.62926 1.817832,0.34006 z m 22.248879,-22.44549 c 0.357187,-0.35719 0.649432,-0.89297 0.649432,-1.19063 0,-0.73672 -0.917322,-1.59952 -1.700588,-1.59952 -0.666806,0 -1.738995,1.08976 -1.738995,1.76749 0,0.50668 1.198663,1.67209 1.719791,1.67209 0.231511,0 0.713172,-0.29225 1.07036,-0.64943 z"
         id="path2"
         inkscape:label="wire"
         sodipodi:nodetypes="ssssssssssssscssscscscsssscssssssssssssss"
         sodipodi:insensitive="true" /><path
         d="m 89.170287,252.70204 c -3.388109,-0.7766 -6.556876,-2.60013 -8.638893,-4.97142 -0.784269,-0.89323 -0.866757,-0.92279 -1.976743,-0.7084 -2.144926,0.41428 -5.544787,0.2806 -7.641609,-0.30046 -5.518793,-1.52934 -10.136367,-5.85481 -11.712915,-10.97197 l -0.577917,-1.8758 -1.839404,-1.04157 c -3.718778,-2.10576 -6.892341,-6.07463 -8.284556,-10.3607 -0.813809,-2.50539 -1.096269,-6.66926 -0.617498,-9.1028 0.314998,-1.60111 0.308771,-1.63778 -0.460652,-2.71305 -1.273813,-1.78016 -2.964251,-5.37705 -3.542659,-7.53802 -0.725825,-2.71172 -0.783654,-7.64011 -0.118375,-10.08845 0.705132,-2.595 2.22381,-5.46092 3.790534,-7.15317 1.398934,-1.51101 1.402043,-1.51823 1.036646,-2.40671 -0.608058,-1.47853 -1.026009,-4.6516 -0.82481,-6.26194 0.585157,-4.68345 3.219003,-9.23468 6.844472,-11.82713 1.384961,-0.99034 1.480419,-1.12868 1.485759,-2.15321 0.0076,-1.45604 1.133484,-5.27763 2.155981,-7.31797 3.434977,-6.85431 9.783967,-11.30588 17.43935,-12.22754 1.440238,-0.1734 1.478146,-0.20015 2.184805,-1.54199 2.451462,-4.65497 6.932406,-8.24763 11.959943,-9.58906 2.309235,-0.61614 6.442497,-0.54495 8.445527,0.14546 3.865407,1.33235 6.455847,3.86496 7.856567,7.68119 l 0.63123,1.71979 v 50.00624 50.00625 l -0.61831,1.79023 c -1.54695,4.47895 -4.9336,7.52361 -9.759777,8.7742 -1.88126,0.48748 -5.156646,0.50019 -7.216696,0.028 z m 5.858926,-3.69817 c 0.96684,-0.20493 2.26755,-0.6326 2.89048,-0.9504 1.74601,-0.89075 3.737627,-3.05845 4.488657,-4.88553 l 0.65256,-1.5875 0.0813,-48.55104 c 0.0611,-36.4922 0.004,-48.91247 -0.23007,-50.00624 -0.91692,-4.28603 -3.857727,-6.83006 -8.192167,-7.08688 -3.681295,-0.21812 -7.411857,1.18306 -10.334687,3.88164 -1.832994,1.69237 -3.446957,4.18303 -2.83811,4.37976 0.190917,0.0617 1.057915,0.30985 1.92666,0.55146 2.629081,0.73119 5.50816,2.43815 6.394839,3.79139 0.554442,0.84619 0.527124,2.0615 -0.06094,2.71131 -0.746794,0.8252 -1.863095,0.63311 -3.209819,-0.55232 -3.136728,-2.76106 -8.649806,-3.91859 -13.132088,-2.75722 -3.596372,0.93182 -7.69974,3.59521 -9.830178,6.38051 -2.141227,2.79941 -3.834054,7.55442 -3.834054,10.76955 0,0.93407 -0.12781,1.27857 -0.595313,1.60464 -4.116343,2.87101 -5.743335,4.65306 -6.831626,7.48269 -0.693418,1.80293 -0.965198,5.26305 -0.537719,6.84587 l 0.295199,1.09302 1.64674,-0.66515 c 3.319595,-1.34084 7.32911,-1.42919 8.56948,-0.18882 0.751052,0.75105 0.797508,1.44297 0.150528,2.24195 -0.423385,0.52286 -0.761877,0.59868 -2.976562,0.66675 -3.814013,0.11722 -6.670177,1.40188 -9.007715,4.05153 -2.267754,2.57055 -3.415407,5.83222 -3.409101,9.6888 0.0046,2.78943 0.478139,5.03685 1.548954,7.35076 1.296233,2.801 1.302954,2.80364 2.683233,1.05277 2.099244,-2.66288 4.50747,-3.41305 5.402212,-1.68281 0.51997,1.00552 0.271693,1.77121 -0.786343,2.42511 -3.126039,1.932 -4.974582,6.81066 -4.379331,11.55788 0.462584,3.68918 1.740827,6.31003 4.290613,8.79729 2.444631,2.38467 5.97269,3.97935 8.803932,3.97935 2.422203,0 3.130574,2.53787 0.959393,3.4372 -0.447246,0.18526 -1.225793,0.26702 -1.743134,0.18307 -0.867031,-0.1407 -0.922149,-0.10955 -0.759212,0.42911 0.09663,0.31945 0.423058,0.99754 0.725395,1.50687 2.417817,4.0731 6.215743,6.25322 11.406357,6.54758 2.502004,0.14189 2.614636,0.12542 2.428498,-0.35512 -0.487992,-1.25984 -0.951059,-3.49896 -0.950157,-4.59441 0.0019,-2.35242 1.68937,-3.80315 3.154597,-2.71209 0.610779,0.45481 0.69693,0.73868 0.836855,2.75746 0.293692,4.23728 2.540414,7.52138 6.393297,9.34529 2.87125,1.35922 5.102574,1.65967 7.908607,1.06492 z"
         style="display:inline;fill:#0f334b;fill-opacity:1"
         id="path1-26"
         inkscape:label="out"
         sodipodi:nodetypes="ssssscssssssssssssssssscccssscsscscssssssssssssscssssscssssssssssssssssscc"
         sodipodi:insensitive="true" /></g><path
       d="m 122.71785,252.69966 c -4.54991,-1.25277 -7.9687,-4.26147 -9.66954,-8.50968 l -0.72699,-1.81579 -0.0773,-18.38854 c -0.0425,-10.11369 -0.0105,-18.65643 0.0712,-18.98385 l 0.14853,-0.59531 h 11.56772 11.56772 l 4.50068,4.4917 4.50067,4.49169 1.19062,-0.41497 c 1.41368,-0.49272 2.9824,-0.34575 4.48344,0.42002 2.97632,1.51841 3.79006,5.80926 1.57922,8.32726 -3.43257,3.90949 -9.76682,1.59791 -9.76682,-3.56422 0,-0.74297 0.1184,-1.5721 0.26312,-1.84251 0.22521,-0.42079 -0.33819,-1.06851 -3.90909,-4.49418 l -4.17222,-4.00253 -9.12164,0.009 -9.12163,0.009 -0.0476,3.97299 -0.0476,3.97299 h 5.89352 c 5.28029,0 5.93619,0.0482 6.30356,0.46302 0.22552,0.25466 0.96758,1.83224 1.64901,3.50573 2.02668,4.97717 1.88433,4.7625 3.15805,4.7625 1.605,0 3.74446,1.36424 4.55783,2.90632 0.72014,1.36533 0.83799,3.48307 0.26941,4.84124 -0.73559,1.75709 -3.19724,3.35885 -5.16912,3.36346 -2.34469,0.005 -4.76173,-1.89487 -5.3084,-4.17362 -0.27221,-1.13472 -0.25778,-1.57838 0.0896,-2.75586 0.22775,-0.77188 0.68778,-1.74148 1.02231,-2.15466 l 0.60822,-0.75125 -0.94505,-1.89459 c -0.51978,-1.04202 -1.21092,-2.51966 -1.53588,-3.28364 l -0.59083,-1.38907 h -5.03316 -5.03315 l 0.0796,11.04636 c 0.0767,10.64789 0.10064,11.10214 0.66376,12.59302 1.54366,4.08697 5.17573,6.36235 10.13144,6.34705 3.30014,-0.0102 6.01121,-1.12034 8.55567,-3.50345 1.79092,-1.67737 3.13539,-4.84223 3.11007,-7.32105 -0.0129,-1.26369 0.0982,-1.73094 0.51922,-2.18281 0.72914,-0.78264 1.9517,-0.74984 2.77602,0.0745 0.78313,0.78313 0.86575,2.50085 0.2466,5.12721 -0.21726,0.92157 -0.32754,1.78478 -0.24506,1.91822 0.2361,0.38202 3.2883,0.28342 5.02407,-0.16229 2.36258,-0.60667 4.20435,-1.60012 5.93227,-3.19987 1.5335,-1.41976 2.96052,-3.37495 3.3071,-4.53114 0.17009,-0.56744 0.10948,-0.59531 -1.29459,-0.59531 -1.67086,0 -2.53138,-0.58463 -2.53138,-1.71979 0,-0.6076 0.7872,-1.69581 1.25678,-1.73735 0.10914,-0.01 0.91281,-0.0563 1.78593,-0.10375 4.18128,-0.22704 8.47054,-3.23051 10.84573,-7.59451 0.89689,-1.64789 1.72198,-4.95716 1.72198,-6.90655 0,-3.93975 -1.61814,-7.30759 -4.88772,-10.17287 -0.81179,-0.7114 -0.83572,-1.1146 -0.12016,-2.02429 0.62708,-0.79721 1.70099,-0.91907 2.83821,-0.32207 0.74592,0.39158 2.33265,1.97067 3.01981,3.00527 0.39387,0.59302 0.41479,0.57403 1.36983,-1.24341 5.38541,-10.24847 -0.56639,-22.21583 -10.90704,-21.93092 -1.50432,0.0414 -1.76714,-0.027 -2.21177,-0.57611 -0.67075,-0.82834 -0.51449,-1.80957 0.39595,-2.48638 0.61222,-0.45512 1.12091,-0.55058 2.91041,-0.54618 2.01292,0.005 3.85282,0.45642 6.30057,1.54601 0.34032,0.15149 0.48921,-0.0531 0.7276,-0.99986 1.21255,-4.81546 -1.1097,-10.15052 -5.76564,-13.24578 -0.99938,-0.66439 -1.88899,-1.39541 -1.97689,-1.62448 -0.0879,-0.22908 -0.15983,-1.04256 -0.15983,-1.80775 0,-1.974 -0.87684,-5.15132 -2.0356,-7.37623 -1.48515,-2.85159 -4.81937,-6.08948 -7.75398,-7.52995 -2.75256,-1.35112 -5.02229,-1.90649 -7.81248,-1.91163 -2.68713,-0.005 -3.15995,-0.30368 -3.56443,-2.25206 -0.79168,-3.81347 -5.11382,-7.7877 -9.78975,-9.00173 -1.85732,-0.48222 -4.85382,-0.42618 -6.67405,0.12482 -2.07778,0.62897 -4.48759,3.15041 -5.27741,5.52189 -0.35965,1.07989 -0.65245,23.201 -0.34652,26.17972 l 0.17037,1.65884 5.54578,-0.0713 5.54578,-0.0713 1.42533,-3.40886 1.42534,-3.40887 -0.87042,-0.82447 c -2.0333,-1.92594 -2.52789,-4.43552 -1.33724,-6.78517 1.13056,-2.23105 3.56235,-3.31024 6.30126,-2.79642 2.05141,0.38484 4.15086,3.2037 4.14336,5.56311 -0.005,1.50494 -1.16948,3.50687 -2.54935,4.38196 -0.69071,0.43804 -1.46508,0.79643 -1.72082,0.79643 -0.29884,0 -0.66738,0.44908 -1.03139,1.25677 -0.84341,1.87142 -2.89667,7.29556 -2.89735,7.65402 -3.2e-4,0.1715 -0.18769,0.49893 -0.41637,0.7276 -0.3556,0.3556 -1.36451,0.41578 -6.97132,0.41578 h -6.55555 l -0.18176,3.84662 c -0.1,2.11565 -0.11099,3.96112 -0.0245,4.10105 0.096,0.15527 3.90138,0.25441 9.76527,0.25441 h 9.60804 l 1.81958,-1.92391 c 1.00076,-1.05815 3.12147,-3.40963 4.71267,-5.22552 1.59121,-1.81589 2.97204,-3.33525 3.06852,-3.37636 0.0965,-0.0411 -0.11379,-0.63642 -0.46725,-1.32291 -1.4623,-2.84008 0.19901,-6.64666 3.29478,-7.54934 4.18415,-1.22004 8.08563,2.52237 6.93054,6.64797 -0.67612,2.41487 -3.53459,4.32652 -5.89631,3.94327 -0.98719,-0.1602 -1.50807,0.29171 -4.81061,4.17375 -0.86525,1.01708 -1.87084,2.19923 -2.23465,2.627 -0.3638,0.42777 -1.59032,1.82246 -2.72561,3.09932 l -2.06415,2.32155 -12.22334,0.0785 c -6.72285,0.0432 -12.31265,0.0417 -12.42179,-0.003 -0.31155,-0.12836 -0.24292,-41.01873 0.0716,-42.67733 0.84775,-4.47015 4.3407,-8.32252 8.70765,-9.60367 1.84082,-0.54005 6.0091,-0.55143 8.09847,-0.0221 2.65988,0.67385 5.67956,2.32704 7.74721,4.24136 1.73863,1.60971 3.88103,4.57272 4.50743,6.23391 0.24159,0.64069 0.40295,0.69854 2.33155,0.83585 4.50882,0.32102 9.08176,2.55869 12.81147,6.26901 3.53725,3.51888 5.96505,8.35434 6.26489,12.47787 l 0.12726,1.75023 1.55613,1.13319 c 2.95597,2.1526 5.30071,5.64653 6.21005,9.25368 0.55385,2.19703 0.40216,6.74147 -0.28032,8.39797 l -0.46087,1.11862 1.37184,1.52721 c 2.78898,3.10485 4.23718,7.12328 4.23718,11.7572 0,3.17169 -0.45691,5.75004 -1.45615,8.21703 -0.70517,1.74099 -3.02226,5.76236 -3.32023,5.76236 -0.0952,0 -0.005,0.62507 0.20134,1.38906 0.26197,0.97162 0.34115,2.34321 0.26346,4.56406 -0.0939,2.68498 -0.23231,3.50844 -0.8966,5.33545 -1.03131,2.83639 -2.25179,4.83177 -4.12827,6.74938 -1.3478,1.37735 -5.20453,4.18705 -5.74734,4.18705 -0.10957,0 -0.33781,0.55037 -0.50719,1.22305 -0.38668,1.53565 -1.37051,3.50014 -2.72209,5.43542 -3.35612,4.8055 -10.41616,7.68067 -16.2031,6.59863 l -1.57554,-0.29459 -1.21617,1.27508 c -3.154,3.30678 -7.66318,5.11698 -12.58775,5.05333 -1.00672,-0.013 -2.39072,-0.17794 -3.07555,-0.3665 z m 10.90724,-20.14784 c 2.85973,-1.14424 2.13664,-5.12658 -0.93085,-5.12658 -2.15877,0 -3.5482,2.48698 -2.3473,4.2015 0.33029,0.47156 1.56473,1.24579 2.14351,1.34439 0.0334,0.006 0.54402,-0.183 1.13464,-0.41931 z m 15.92677,-12.45683 c 1.68299,-1.6124 0.48315,-4.576 -1.85263,-4.576 -2.05717,0 -3.41693,2.01341 -2.56799,3.80243 0.85242,1.79634 2.96687,2.16635 4.42062,0.77357 z m 1.48687,-50.79392 c 0.33958,-0.21445 0.78766,-0.79736 0.99574,-1.29537 0.32822,-0.78553 0.32805,-1.02579 -0.001,-1.81393 -0.40478,-0.96877 -1.56446,-1.73736 -2.62141,-1.73736 -0.80065,0 -1.91831,0.86245 -2.44995,1.89052 -0.37137,0.71815 -0.36525,0.86919 0.0714,1.76257 0.53294,1.09032 2.01102,1.99133 2.85609,1.74103 0.29256,-0.0867 0.80977,-0.33301 1.14934,-0.54746 z m -16.8553,-9.22986 c 0.4618,-0.2388 0.96979,-0.81733 1.19866,-1.36508 0.35966,-0.86079 0.35449,-1.04534 -0.0547,-1.95271 -0.44287,-0.98211 -1.65224,-1.82401 -2.62015,-1.82401 -0.88018,0 -2.04576,0.84488 -2.42814,1.76005 -0.52212,1.24961 -0.0934,2.58729 1.05333,3.28652 1.01152,0.61679 1.79199,0.64286 2.85098,0.0952 z m 16.69797,39.74876 c -1.24882,-0.45291 -2.67439,-1.67288 -3.17051,-2.71325 l -0.43028,-0.90232 h -15.57164 -15.57163 l -1.11426,1.08496 c -1.25638,1.22335 -2.26273,1.9558 -2.44152,1.77701 -0.25246,-0.25245 -0.41061,-6.24911 -0.20806,-7.88905 l 0.21241,-1.71979 1.43016,-0.0814 c 1.71848,-0.0978 1.86758,0.0713 1.87308,2.12388 l 0.004,1.51332 15.7339,0.0119 15.73391,0.0119 0.38206,-0.73149 c 1.39734,-2.67537 4.84043,-3.74871 7.57304,-2.36082 1.6195,0.82255 2.91042,2.92366 2.91042,4.73703 0,3.70172 -3.86015,6.40198 -7.34513,5.13808 z m 2.99753,-2.68 c 1.93703,-0.80935 2.10491,-3.54977 0.28543,-4.65922 -1.25929,-0.76787 -2.19517,-0.65525 -3.24033,0.3899 -1.13911,1.13911 -1.21921,2.38413 -0.22909,3.56082 0.58061,0.69002 0.91296,0.86184 2.04998,1.05982 0.11382,0.0198 0.62412,-0.13828 1.13401,-0.35132 z"
       style="display:inline;fill:#2d5016"
       id="path1-3"
       inkscape:label="right" /><path
       d="m 128.73799,295.65828 c -2.50431,-0.36492 -4.98758,-1.3427 -6.48073,-2.55179 0,0 -0.60705,-0.2469 -0.64234,-0.52014 -0.072,-0.55762 0.99813,-1.35972 0.99813,-1.35972 0.54898,-0.74785 1.10942,-1.35973 1.24544,-1.35973 0.13602,0 0.69143,0.27624 1.23424,0.61386 1.76415,1.09729 3.31175,1.56199 5.61714,1.68665 1.97842,0.10699 2.39218,0.0476 3.43958,-0.49413 0.68569,-0.35462 1.34318,-0.9372 1.55034,-1.37372 0.32032,-0.67496 0.30323,-0.83434 -0.15608,-1.45521 -0.73738,-0.99674 -1.54603,-1.31908 -5.18093,-2.06516 -3.51827,-0.72213 -6.19745,-1.82737 -7.04663,-2.90692 -1.11932,-1.42299 -1.29238,-3.91697 -0.39372,-5.67391 1.49321,-2.91933 6.86534,-4.36467 11.82386,-3.18112 2.26428,0.54047 4.23205,1.35035 4.55652,1.87534 0.0892,0.14433 -0.25027,0.90718 -0.75437,1.69522 l -0.91655,1.43279 -1.35897,-0.65038 c -3.86272,-1.84863 -8.88955,-1.55123 -9.41874,0.55723 -0.4375,1.74312 0.44525,2.35642 4.63759,3.22206 3.66751,0.75727 5.54823,1.41509 6.82731,2.38798 2.64342,2.01063 2.51607,6.29567 -0.24678,8.30379 -1.57875,1.14747 -2.53656,1.5081 -4.86596,1.83209 -2.22322,0.30922 -2.24327,0.30916 -4.46835,-0.0151 z m 43.07568,-0.51581 c -2.08581,-0.66116 -4.02982,-2.36885 -5.04108,-4.42828 l -0.74085,-1.50875 -0.0854,-7.0776 -0.0853,-7.07761 h 2.13586 2.13587 v 5.80781 c 0,6.38737 0.23126,8.08505 1.26941,9.31882 2.13688,2.53953 7.41679,2.40434 9.16318,-0.23462 0.98471,-1.488 1.20908,-3.22711 1.20908,-9.37187 v -5.52014 h 2.13714 2.13714 l -0.10914,6.81302 c -0.0681,4.25268 -0.22763,7.17866 -0.42447,7.78598 -0.84723,2.61403 -3.18151,4.8139 -5.96738,5.62378 -2.00348,0.58242 -5.68064,0.52036 -7.73407,-0.13054 z m -27.34547,-9.90578 v -10.18646 h 8.46666 8.46667 v 1.71979 1.7198 h -6.36636 -6.36636 l 0.0554,2.3151 0.0554,2.3151 5.58336,0.1323 5.58336,0.13229 0.0788,1.65364 0.0788,1.65365 -1.40168,0.038 c -0.77093,0.0209 -3.1281,0.0667 -5.23815,0.10164 -2.11005,0.035 -4.04482,0.0774 -4.29948,0.0943 -0.4044,0.0268 -0.46302,0.33211 -0.46302,2.4119 v 2.38125 l 2.84427,0.0565 c 1.56435,0.0311 4.45162,0.0608 6.41615,0.0661 l 3.57187,0.01 0.0782,1.78594 0.0782,1.78594 h -8.61105 -8.61104 z m 46.83125,0 v -10.18646 l 5.62239,-0.028 c 3.09232,-0.0154 5.97958,-0.009 6.41615,0.0143 1.37387,0.0732 3.94827,1.04555 4.94611,1.86805 2.15026,1.77242 2.81753,5.20727 1.51964,7.8225 -0.70379,1.41814 -2.49379,2.95641 -3.72726,3.20311 -0.41477,0.0829 -0.75412,0.20279 -0.75412,0.26631 0,0.17234 5.25153,6.37691 5.55739,6.56595 0.1449,0.0896 0.26344,0.27485 0.26344,0.41178 0,0.32419 -5.21958,0.32705 -5.33576,0.003 -0.0485,-0.13532 -1.21079,-1.6236 -2.58286,-3.30729 l -2.49467,-3.06124 h -2.59856 -2.59856 v 3.30729 3.30729 h -2.11667 -2.11666 z m 13.38952,-0.78781 c 0.73803,-0.48357 1.42714,-1.86878 1.42714,-2.86873 0,-0.95933 -1.07998,-2.34609 -2.11667,-2.71792 -0.56626,-0.20311 -2.39086,-0.33998 -4.69635,-0.35228 l -3.77031,-0.0201 v 3.29938 3.29939 l 3.37344,0.074 c 3.71114,0.0815 4.76822,-0.049 5.78275,-0.71376 z"
       style="display:none;fill:#2d5016"
       id="path1-2"
       inkscape:label="SEUR"
       sodipodi:insensitive="true" /><path
       d="m 7.1494576,295.2895 c 0,-0.0735 2.253695,-4.63982 5.0082124,-10.14737 l 5.008212,-10.01372 1.407934,-0.16908 c 3.070484,-0.36874 2.247847,-1.40682 7.888696,9.9547 2.765737,5.57061 5.028612,10.21405 5.028612,10.31875 0,0.1047 -1.017483,0.19037 -2.261072,0.19037 H 26.96898 l -1.034106,-2.24896 -1.034107,-2.24896 h -5.580639 -5.58064 l -1.063759,2.24896 -1.06376,2.24896 H 9.3807136 c -1.227191,0 -2.231256,-0.0601 -2.231256,-0.13365 z M 21.380092,283.58305 c -1.030806,-2.14644 -1.912931,-3.94919 -1.960278,-4.00613 -0.04735,-0.0569 -0.957769,1.69923 -2.023159,3.9026 l -1.937074,4.00613 h 3.897352 3.897351 z m 13.34907,1.63141 0.06925,-10.20869 1.750029,-0.11744 1.750029,-0.11744 2.483304,2.71936 c 1.365817,1.49565 4.080502,4.44576 6.032633,6.55582 1.95213,2.11005 3.742469,4.04591 3.97853,4.30191 0.396784,0.43029 0.428463,-0.0578 0.419422,-6.46238 l -0.0098,-6.92783 2.116666,-0.0199 2.116667,-0.0199 0.06925,10.25261 0.06925,10.2526 -1.921336,-0.0227 -1.921336,-0.0227 -3.439584,-3.76036 c -1.89177,-2.06821 -4.779036,-5.20865 -6.416145,-6.97877 l -2.976562,-3.2184 v 7.00142 7.00143 h -2.119746 -2.119774 z m 23.797123,10.01025 c 0.05047,-0.10914 2.382414,-4.75258 5.182102,-10.31875 l 5.090342,-10.12031 h 2.054857 2.054857 l 5.007438,10.12031 c 2.754091,5.56617 5.053709,10.20961 5.110262,10.31875 0.05655,0.10914 -0.958914,0.19844 -2.256594,0.19844 h -2.35942 l -1.036066,-2.23836 -1.036067,-2.23836 -5.587344,-0.0106 -5.587344,-0.0106 -1.027239,2.24652 -1.027239,2.24653 -2.337152,0.002 c -1.285434,0.001 -2.295861,-0.0869 -2.245393,-0.196 z m 15.698078,-8.61703 c -0.201762,-0.48289 -1.07187,-2.31052 -1.933572,-4.0614 l -1.56673,-3.18343 -1.672191,3.59838 c -0.919705,1.97911 -1.774118,3.80674 -1.898696,4.0614 -0.210392,0.43008 0.04609,0.46302 3.605763,0.46302 h 3.832266 z m 11.770924,-1.34501 v -10.16048 l 1.521355,-0.16063 c 0.836744,-0.0883 1.759479,-0.10915 2.05052,-0.0462 0.291042,0.0629 0.61706,0.12352 0.724485,0.13465 0.107425,0.0111 0.177857,0.2286 0.156516,0.48326 -0.02134,0.25467 -0.01994,4.00286 0.0031,8.32932 l 0.04192,7.86629 5.88698,0.0712 5.886977,0.0712 0.0782,1.78594 0.0782,1.78594 h -8.214167 -8.214176 z m 22.489583,6.23119 v -3.9293 l -1.27693,-1.6931 c -2.74248,-3.6363 -7.661297,-10.79064 -7.517647,-10.93429 0.0833,-0.0833 1.125887,-0.15152 2.316767,-0.15152 h 2.16526 l 2.20604,3.10885 c 1.21333,1.70987 2.69201,3.77892 3.28597,4.59789 l 1.07992,1.48903 3.16979,-4.56517 3.16978,-4.56516 2.17753,-0.016 c 1.19763,-0.009 1.97616,-0.4992 2.30968,0.19783 0.90357,1.88837 -1.50614,2.46158 -3.50849,5.20881 -2.00236,2.74724 -4.02398,5.55221 -4.4925,6.23328 l -0.85184,1.23829 v 3.85494 3.85493 h -2.11667 -2.11666 z"
       style="display:none;fill:#0f334b;fill-opacity:1"
       id="path1-6"
       inkscape:label="ANALY"
       sodipodi:insensitive="true" /><path
       d="m 122.12235,269.77631 c -1.65732,-0.2415 -3.3007,-0.88858 -4.28885,-1.68873 0,0 -0.40174,-0.16339 -0.42509,-0.34423 -0.0476,-0.36901 0.66055,-0.89983 0.66055,-0.89983 0.3633,-0.49491 0.73419,-0.89986 0.82421,-0.89986 0.09,0 0.45757,0.18282 0.8168,0.40624 1.16749,0.72617 2.19167,1.0337 3.71733,1.11619 1.30929,0.0708 1.58311,0.0315 2.27626,-0.327 0.45379,-0.23467 0.8889,-0.62021 1.026,-0.9091 0.21197,-0.44668 0.20067,-0.55216 -0.10322,-0.96302 -0.48799,-0.65965 -1.02315,-0.87297 -3.42866,-1.3667 -2.32833,-0.47789 -4.10138,-1.20933 -4.66336,-1.92376 -0.74075,-0.94172 -0.85527,-2.5922 -0.26056,-3.7549 0.98819,-1.93198 4.54339,-2.88847 7.82485,-2.10524 1.49847,0.35769 2.80071,0.89365 3.01545,1.24109 0.0591,0.0955 -0.16563,0.60036 -0.49923,1.12186 l -0.60656,0.9482 -0.89935,-0.43041 c -2.5563,-1.22339 -5.88298,-1.02657 -6.23318,0.36877 -0.28952,1.15357 0.29467,1.55944 3.06908,2.13231 2.42712,0.50115 3.67173,0.9365 4.51821,1.58033 1.74939,1.3306 1.6651,4.16638 -0.1633,5.49532 -1.04481,0.75939 -1.67867,0.99804 -3.22023,1.21245 -1.47128,0.20464 -1.48457,0.20461 -2.95707,-0.0104 z m 28.50683,-0.34134 c -1.38035,-0.43757 -2.66686,-1.56769 -3.3361,-2.93057 l -0.49028,-0.99847 -0.0565,-4.68387 -0.0565,-4.68385 h 1.41347 1.41349 v 3.84353 c 0,4.22706 0.15304,5.35057 0.84008,6.16706 1.41416,1.68062 4.90832,1.59115 6.06405,-0.15529 0.65169,-0.98473 0.80016,-2.13564 0.80016,-6.20214 v -3.65316 h 1.41433 1.41432 l -0.0722,4.50875 c -0.0451,2.81436 -0.15063,4.75075 -0.2809,5.15265 -0.56069,1.72992 -2.10547,3.18576 -3.94913,3.72172 -1.32586,0.38546 -3.75936,0.34438 -5.11828,-0.0864 z m -18.09682,-6.55551 v -6.74125 h 5.60311 5.60312 v 1.13814 1.13813 h -4.21317 -4.21315 l 0.0367,1.5321 0.0367,1.5321 3.69498,0.0875 3.69498,0.0875 0.0521,1.09436 0.0521,1.09437 -0.9276,0.0251 c -0.51019,0.0138 -2.07013,0.0441 -3.46653,0.0673 -1.3964,0.0232 -2.67681,0.0512 -2.84533,0.0623 -0.26763,0.0178 -0.30642,0.21978 -0.30642,1.59615 v 1.57587 l 1.8823,0.0375 c 1.03525,0.0206 2.94601,0.0403 4.2461,0.0437 l 2.36382,0.007 0.0517,1.18191 0.0517,1.18191 h -5.69867 -5.69866 z m 30.99222,0 v -6.74125 l 3.72083,-0.0186 c 2.04643,-0.0104 3.95718,-0.007 4.2461,0.009 0.90921,0.0484 2.61291,0.69194 3.27327,1.23626 1.423,1.17295 1.86458,3.44608 1.00566,5.1768 -0.46575,0.9385 -1.65034,1.95652 -2.46663,2.11977 -0.2745,0.0549 -0.49907,0.13421 -0.49907,0.17624 0,0.11406 3.47538,4.22014 3.6778,4.34524 0.0959,0.0593 0.17433,0.1819 0.17433,0.27251 0,0.21455 -3.45423,0.21645 -3.53112,0.002 -0.0322,-0.0895 -0.80129,-1.07446 -1.7093,-2.1887 l -1.65093,-2.02588 h -1.71969 -1.71969 v 2.18871 2.18873 h -1.40078 -1.40078 z m 8.861,-0.52137 c 0.48841,-0.32 0.94446,-1.23673 0.94446,-1.89846 0,-0.63488 -0.71472,-1.55262 -1.40078,-1.79869 -0.37474,-0.13442 -1.58224,-0.22501 -3.10798,-0.23314 l -2.49514,-0.0133 v 2.18348 2.18349 l 2.2325,0.0489 c 2.45597,0.0539 3.15554,-0.0324 3.82694,-0.47236 z"
       style="display:inline;fill:#2d5016;stroke-width:0.661786"
       id="path1-2-4"
       inkscape:label="SEUR" /><path
       d="m 41.656888,269.53226 c 0,-0.0486 1.491462,-3.07057 3.314358,-6.71538 l 3.314358,-6.62693 0.931753,-0.11194 c 2.032001,-0.24401 1.487592,-0.93101 5.220621,6.58788 1.830321,3.68654 3.327858,6.7595 3.327858,6.82879 0,0.0693 -0.673353,0.12597 -1.49634,0.12597 h -1.496349 l -0.684352,-1.48831 -0.68435,-1.48833 h -3.693187 -3.693186 l -0.70398,1.48833 -0.70398,1.48831 H 43.1335 c -0.812142,0 -1.476612,-0.0399 -1.476612,-0.0884 z m 9.417618,-7.74715 c -0.682163,-1.42048 -1.265949,-2.61351 -1.297287,-2.65119 -0.03132,-0.0376 -0.633834,1.12451 -1.338885,2.58268 l -1.281933,2.65119 h 2.579211 2.579202 z m 8.834212,1.07963 0.0459,-6.75595 1.158146,-0.0778 1.158138,-0.0778 1.643419,1.79964 c 0.903879,0.98979 2.700414,2.94213 3.99231,4.33853 1.291887,1.39641 2.47671,2.67753 2.632932,2.84695 0.262584,0.28476 0.283545,-0.0382 0.27756,-4.27671 l -0.0063,-4.58474 1.400777,-0.0132 1.400779,-0.0132 0.0459,6.78502 0.0459,6.78501 -1.271503,-0.0151 -1.271519,-0.0151 -2.276262,-2.48854 c -1.251911,-1.3687 -3.162656,-3.447 -4.246076,-4.61844 l -1.969839,-2.12988 v 4.63344 4.63344 h -1.402856 -1.402829 z m 15.748587,6.62464 c 0.03339,-0.0722 1.576648,-3.14519 3.429442,-6.8288 l 3.368709,-6.69746 h 1.359873 1.359871 l 3.313845,6.69746 c 1.822618,3.68361 3.344473,6.75658 3.381895,6.8288 0.03744,0.0723 -0.634591,0.13131 -1.49338,0.13131 h -1.561427 l -0.685656,-1.4813 -0.685647,-1.48131 -3.697622,-0.006 -3.697623,-0.007 -0.679806,1.48671 -0.679816,1.48673 -1.546685,8.9e-4 c -0.85069,6.6e-4 -1.519372,-0.0575 -1.485982,-0.12972 z m 10.388753,-5.70262 C 85.912535,263.4672 85.336706,262.2577 84.766447,261.099 l -1.036834,-2.10676 -1.106631,2.38136 c -0.608652,1.30975 -1.174086,2.51924 -1.256536,2.68776 -0.139229,0.28464 0.03051,0.30643 2.386243,0.30643 h 2.536136 z m 7.789825,-0.8901 v -6.72405 l 1.006803,-0.10632 c 0.553752,-0.0584 1.164402,-0.0723 1.357002,-0.0306 0.192609,0.0417 0.408366,0.0816 0.479457,0.0891 0.0711,0.007 0.117702,0.1513 0.103576,0.31982 -0.01413,0.16855 -0.01314,2.64904 0.0018,5.51223 l 0.02772,5.20578 3.895899,0.0471 3.89592,0.0471 0.0517,1.18191 0.0517,1.18192 h -5.436014 -5.436013 z m 14.883257,4.12371 v -2.60035 l -0.84506,-1.12048 c -1.81493,-2.40644 -5.07013,-7.14109 -4.97507,-7.23615 0.0551,-0.0551 0.74511,-0.10021 1.5332,-0.10021 h 1.43295 l 1.45992,2.05739 c 0.80296,1.13156 1.78153,2.50083 2.1746,3.04281 l 0.71468,0.98542 2.09772,-3.02115 2.09771,-3.02116 1.44106,-0.0104 c 0.79257,-0.007 1.30778,-0.33037 1.52851,0.13092 0.59797,1.24969 -0.99675,1.62902 -2.32187,3.44711 -1.32513,1.81808 -2.66301,3.67436 -2.97306,4.12509 l -0.56374,0.81947 v 2.55114 2.55115 h -1.40077 -1.40078 z"
       style="display:inline;fill:#0f334b;fill-opacity:1;stroke-width:0.661786"
       id="path1-6-3"
       inkscape:label="ANALY" /></g></svg>
