<?xml version="1.0" encoding="UTF-8" standalone="no"?>
<!-- Created with Inkscape (http://www.inkscape.org/) -->

<svg
   width="343.88989mm"
   height="334.67355mm"
   viewBox="0 0 343.88989 334.67355"
   version="1.1"
   id="svg1"
   xml:space="preserve"
   inkscape:version="1.4.3 (0d15f75042, 2025-12-25)"
   sodipodi:docname="logo-github.svg"
   xmlns:inkscape="http://www.inkscape.org/namespaces/inkscape"
   xmlns:sodipodi="http://sodipodi.sourceforge.net/DTD/sodipodi-0.dtd"
   xmlns="http://www.w3.org/2000/svg"
   xmlns:svg="http://www.w3.org/2000/svg"><sodipodi:namedview
     id="namedview1"
     pagecolor="#ffffff"
     bordercolor="#000000"
     borderopacity="0.25"
     inkscape:showpageshadow="2"
     inkscape:pageopacity="0.0"
     inkscape:pagecheckerboard="0"
     inkscape:deskcolor="#d1d1d1"
     inkscape:document-units="mm"
     inkscape:zoom="0.36614057"
     inkscape:cx="775.65837"
     inkscape:cy="778.38956"
     inkscape:window-width="1920"
     inkscape:window-height="1008"
     inkscape:window-x="0"
     inkscape:window-y="0"
     inkscape:window-maximized="1"
     inkscape:current-layer="layer1" /><defs
     id="defs1" /><g
     inkscape:label="Layer 1"
     inkscape:groupmode="layer"
     id="layer1"
     transform="translate(100.49604,57.654788)"><path
       style="fill:#000000"
       d="M 16.271871,276.71498 C 7.1341168,273.41708 1.4502832,271.02136 -5.6242232,267.48584 -29.399962,255.60378 -50.238877,238.19375 -66.261377,216.82604 -93.379815,180.66073 -104.96845,135.94762 -98.936911,90.752083 -94.861449,60.213812 -82.122282,30.670927 -62.598993,6.4822893 -25.544367,-39.427027 31.777418,-63.069311 90.355206,-56.603438 c 53.935784,5.953483 101.128634,36.424767 129.257814,83.458644 2.60334,4.352971 8.03144,15.031395 9.97944,19.632042 13.62445,32.177394 17.24698,67.116472 10.48737,101.150252 -11.27478,56.7671 -50.98413,104.37464 -105.01004,125.89653 -7.15351,2.84969 -9.2239,3.48472 -11.36127,3.48472 -5.22525,0 -9.64852,-3.66924 -11.9608,-9.92187 -0.4623,-1.25012 -0.4979,-3.0555 -0.64687,-32.80834 -0.11275,-22.51887 -0.24862,-32.08821 -0.47712,-33.60208 -0.49639,-3.28887 -1.30123,-6.16999 -2.31616,-8.29129 -0.51085,-1.06771 -0.88958,-1.9735 -0.84163,-2.01287 0.048,-0.0394 1.21828,-0.27261 2.60072,-0.51832 4.00436,-0.71173 12.72797,-2.93104 17.33021,-4.40886 22.92838,-7.36248 39.77014,-19.17319 50.71997,-35.56866 5.60316,-8.38976 9.90831,-19.80087 11.42951,-30.29479 2.0297,-14.00175 0.72528,-30.411229 -3.4586,-43.508906 -3.4786,-10.889807 -9.69998,-21.793138 -16.39776,-28.738024 l -1.16338,-1.206301 1.04268,-2.233283 c 1.30102,-2.786599 2.21051,-5.910452 2.98326,-10.246728 0.81612,-4.579624 0.88467,-15.000984 0.12829,-19.503222 -1.05245,-6.2645293 -3.37168,-12.4560125 -6.37141,-17.0093176 l -1.25725,-1.9083911 -1.49744,2.212e-4 c -4.41033,6.512e-4 -11.78653,1.1199537 -16.79996,2.5493123 -11.11226,3.16817154 -22.67143,9.9314874 -30.58382,17.8947132 l -2.23008,2.24441 -2.13555,-0.720892 C 104.87229,14.864884 94.028696,12.951614 83.211456,12.160091 78.124578,11.787873 64.423672,11.788549 59.79583,12.161246 48.468401,13.073488 38.537519,14.895641 31.419589,17.367818 l -2.579366,0.895857 -2.451241,-2.45124 C 16.310928,5.734381 2.3423363,-1.5712672 -11.112505,-3.8010431 c -3.145054,-0.5212077 -7.512716,-0.9614596 -9.538472,-0.9614596 h -1.544905 l -1.06436,1.486362 c -1.440554,2.0117101 -3.500905,6.091732 -4.470732,8.8531921 -3.304921,9.4103476 -3.577564,22.0045336 -0.69968,32.3202816 0.60614,2.172704 2.726775,6.991172 3.600223,8.180364 0.273283,0.372071 0.02509,0.76556 -1.668868,2.645833 -14.564368,16.166281 -21.735312,36.808934 -21.033938,60.54939 0.297988,10.08642 1.936944,18.56702 5.211871,26.96829 9.793582,25.12375 32.6681197,43.03761 65.736987,51.48098 2.473854,0.63164 6.105261,1.46285 8.069792,1.84714 1.964531,0.38428 3.715786,0.74527 3.891677,0.80219 0.22216,0.0719 0.0814,0.62928 -0.461036,1.82559 -1.923851,4.24296 -2.852277,9.93334 -3.23754,19.84307 l -0.06081,1.56413 -1.852084,0.62544 c -7.819951,2.64075 -19.316098,2.72368 -28.0138038,0.20208 -9.8605793,-2.85872 -16.5311042,-7.77475 -22.2412272,-16.39126 -6.078389,-9.17223 -14.094111,-14.93189 -23.179208,-16.6553 -3.784149,-0.71784 -7.589512,-0.45413 -9.83452,0.68153 -3.054156,1.54497 -1.562982,4.52318 4.422924,8.83356 6.711291,4.83272 12.718677,13.23483 17.195943,24.05076 1.681604,4.06232 4.349883,8.00577 8.007205,11.83385 7.80431,8.16868 18.3925499,13.24166 30.8885199,14.79914 3.1436111,0.39181 11.4608761,0.38768 14.9489591,-0.007 2.755928,-0.31217 8.424556,-1.22231 9.340539,-1.49968 0.455845,-0.13803 0.473348,0.42856 0.394691,12.77627 l -0.08231,12.9207 -0.680055,1.75143 c -1.540823,3.96827 -4.157988,7.01798 -7.299305,8.50568 -1.567224,0.74223 -2.120522,0.86285 -4.187106,0.91281 -1.309688,0.0317 -2.738438,-0.0713 -3.175,-0.2289 z"
       id="path1" /></g></svg>
