<?xml version="1.0" encoding="UTF-8" standalone="no"?>
<!-- Created with Inkscape (http://www.inkscape.org/) -->

<svg
   width="82.023872mm"
   height="46.701481mm"
   viewBox="0 0 82.023872 46.701481"
   version="1.1"
   id="svg1"
   xml:space="preserve"
   inkscape:version="1.4.3 (0d15f75042, 2025-12-25)"
   sodipodi:docname="logo-read-the-docs.svg"
   xmlns:inkscape="http://www.inkscape.org/namespaces/inkscape"
   xmlns:sodipodi="http://sodipodi.sourceforge.net/DTD/sodipodi-0.dtd"
   xmlns="http://www.w3.org/2000/svg"
   xmlns:svg="http://www.w3.org/2000/svg"><sodipodi:namedview
     id="namedview1"
     pagecolor="#ffffff"
     bordercolor="#000000"
     borderopacity="0.25"
     inkscape:showpageshadow="2"
     inkscape:pageopacity="0.0"
     inkscape:pagecheckerboard="0"
     inkscape:deskcolor="#d1d1d1"
     inkscape:document-units="mm"
     inkscape:zoom="0.73228114"
     inkscape:cx="148.84993"
     inkscape:cy="106.51647"
     inkscape:window-width="1920"
     inkscape:window-height="1008"
     inkscape:window-x="0"
     inkscape:window-y="0"
     inkscape:window-maximized="1"
     inkscape:current-layer="layer1" /><defs
     id="defs1" /><g
     inkscape:label="Layer 1"
     inkscape:groupmode="layer"
     id="layer1"
     transform="translate(-65.832695,-120.33232)"><path
       style="fill:#000000"
       d="m 85.622603,166.49406 c -1.268213,-0.26741 -2.875556,-0.67322 -3.571875,-0.90179 -4.693696,-1.54071 -12.747578,-1.67716 -15.48357,-0.26233 l -0.734463,0.37981 0.06767,-22.03414 0.06767,-22.03415 1.852084,-0.66127 c 1.715908,-0.61265 2.192519,-0.66014 6.482291,-0.64588 3.482116,0.0116 5.089445,0.13002 6.482291,0.47768 4.601865,1.14863 6.060622,1.33027 10.583333,1.31779 2.729247,-0.008 5.671937,-0.18401 7.483576,-0.4488 1.64211,-0.24002 3.0411,-0.43639 3.10886,-0.43639 0.0678,0 0.12319,10.04804 0.12319,22.32898 0,21.02153 -0.0271,22.3394 -0.46302,22.50691 -2.753139,1.05796 -11.829336,1.29259 -15.998031,0.41358 z m 12.95532,-2.25473 1.389063,-0.41733 V 143.82025 123.8185 l -1.256771,0.17512 c -0.691224,0.0963 -3.102239,0.24628 -5.357812,0.33325 -4.280947,0.16507 -10.218938,-0.32617 -13.179328,-1.09031 -1.056898,-0.27281 -1.434698,-0.28592 -1.523644,-0.0529 -0.06505,0.17043 -0.08748,9.04462 -0.04984,19.72043 l 0.06843,19.41057 1.580214,0.48891 c 1.975008,0.61105 6.075363,1.50907 8.34166,1.82689 2.44626,0.34307 8.308293,0.1135 9.98802,-0.39115 z m -9.98802,-18.02022 c -1.825432,-0.21919 -5.706804,-0.89985 -6.665513,-1.1689 -1.140333,-0.32002 -1.556296,-1.14512 -0.905425,-1.79599 0.384875,-0.38488 0.676289,-0.37204 3.400631,0.14986 3.900444,0.74719 6.873389,0.93317 10.123432,0.63328 2.871693,-0.26498 3.307291,-0.14297 3.307291,0.92638 0,0.4281 -0.208053,0.71471 -0.63727,0.8779 -0.707626,0.26904 -7.170208,0.55193 -8.623146,0.37747 z m -0.396875,-5.67843 c -4.633624,-0.47045 -7.547317,-1.30955 -7.536573,-2.17042 0.01443,-1.15635 0.518694,-1.18983 5.023032,-0.33356 1.651814,0.314 3.495758,0.41041 6.944645,0.36308 4.963452,-0.0681 5.342487,0.0142 5.182442,1.12591 -0.06707,0.46586 -0.313182,0.65833 -1.014588,0.79347 -1.65433,0.31872 -6.429858,0.44174 -8.598958,0.22152 z m -3.421733,-6.08951 c -2.921185,-0.51405 -4.118891,-1.00385 -4.118891,-1.68441 0,-0.57456 0.813054,-1.25263 1.284891,-1.07157 0.232601,0.0893 1.794827,0.40225 3.471614,0.69553 2.443587,0.42741 3.9356,0.51638 7.517084,0.44825 4.023332,-0.0765 4.49754,-0.0389 4.761146,0.37801 0.441831,0.69878 -0.111141,1.35701 -1.320821,1.57226 -2.104924,0.37453 -8.625983,0.18441 -11.595023,-0.33807 z m 1.670711,-5.27021 c -2.387039,-0.37851 -5.063029,-1.04816 -5.440535,-1.36146 -0.466442,-0.38712 -0.442199,-1.14116 0.04982,-1.5495 0.322921,-0.268 0.940175,-0.21118 3.241146,0.29834 2.470515,0.54706 3.534367,0.62937 8.133926,0.62937 h 5.291667 l 0.07952,0.68411 c 0.14334,1.2331 -0.379323,1.37654 -5.315811,1.45889 -2.504312,0.0418 -5.222191,-0.0301 -6.039733,-0.15975 z m -16.430735,9.01689 c 0.832155,-0.28008 2.39625,-0.54511 3.475767,-0.58896 2.361935,-0.0959 3.110421,-0.53628 2.827516,-1.66346 l -0.184289,-0.73427 -2.964452,0.097 c -2.507397,0.082 -3.168415,0.19855 -4.287367,0.75578 -1.439247,0.71672 -1.797485,1.46934 -1.053515,2.21331 0.527139,0.52714 0.367014,0.53296 2.18634,-0.0794 z m 3.583828,-6.30447 c 2.678715,-0.18608 3.270948,-0.7662 2.193905,-2.14903 -0.311767,-0.40028 -3.286324,-0.26571 -5.735123,0.25946 -2.260115,0.48471 -3.318422,1.84153 -2.101313,2.69403 0.460859,0.3228 0.726106,0.30405 2.050521,-0.14492 0.836655,-0.28362 2.453059,-0.58042 3.59201,-0.65954 z m -2.467695,-5.20672 c 0.945885,-0.22218 2.380589,-0.40644 3.188229,-0.40947 1.570784,-0.006 2.103437,-0.3088 2.103437,-1.19614 0,-0.3056 -0.142875,-0.6985 -0.3175,-0.87313 -0.642354,-0.64235 -5.159491,-0.23922 -7.410169,0.66132 -1.120334,0.44827 -1.562857,1.39 -0.98203,2.08986 0.363971,0.43856 0.405085,0.43528 3.418033,-0.27244 z m 51.968186,39.44026 c -1.12678,-0.51085 -1.85273,-1.52005 -2.23268,-3.10382 -0.88629,-3.69449 1.07261,-6.57421 4.4791,-6.58458 2.64635,-0.008 3.99733,1.66759 3.98937,4.94809 -0.005,2.00596 -0.6299,3.44882 -1.9029,4.39272 -0.908,0.67325 -3.20765,0.85773 -4.33289,0.34759 z m 3.2007,-1.66402 c 0.64136,-0.64136 0.92278,-1.54998 0.92278,-2.97939 0,-2.41925 -0.69956,-3.46184 -2.32285,-3.46184 -1.34479,0 -1.77819,0.79958 -1.77819,3.28056 0,2.69626 0.46119,3.59861 1.83928,3.59861 0.49558,0 1.09811,-0.19707 1.33898,-0.43794 z m 6.49784,1.56201 c -0.49898,-0.25444 -1.12329,-0.76027 -1.38735,-1.12407 -1.07442,-1.48024 -1.09415,-5.29242 -0.0348,-6.7264 1.17748,-1.59392 3.76603,-2.19733 5.79303,-1.3504 0.88507,0.36981 0.92889,0.44812 0.85139,1.52136 -0.0764,1.0575 -0.13667,1.13681 -0.92254,1.21297 -0.74836,0.0725 -0.85021,-2.3e-4 -0.92604,-0.66146 -0.0628,-0.54728 -0.24907,-0.76614 -0.70742,-0.83102 -1.77058,-0.25062 -2.68545,0.881 -2.68466,3.32072 8.9e-4,2.72728 1.51428,4.02428 3.68313,3.15647 1.02727,-0.41103 1.07598,-0.40677 1.35719,0.11868 0.42249,0.78942 0.17761,1.15635 -1.00899,1.51186 -1.48398,0.44461 -2.95636,0.39005 -4.01293,-0.14871 z m 7.25723,0.23222 c -0.74562,-0.15837 -0.7986,-0.25273 -0.87372,-1.55619 -0.0796,-1.38179 -0.0767,-1.3876 0.71003,-1.3876 0.66513,0 0.80323,0.115 0.87372,0.7276 0.0706,0.61335 0.2245,0.74105 0.98023,0.81325 0.49308,0.0471 1.18492,0.0132 1.53744,-0.0752 0.53664,-0.13469 0.62755,-0.29922 0.5587,-1.01122 -0.0763,-0.78843 -0.20747,-0.89414 -1.80203,-1.45156 -2.00217,-0.69991 -2.91447,-1.57664 -2.90104,-2.78791 0.0209,-1.88149 1.44184,-3.08962 3.63715,-3.09236 0.76866,-9.5e-4 1.81045,0.17078 2.3151,0.38164 0.83291,0.34801 0.91754,0.48223 0.91754,1.4552 0,1.01454 -0.0424,1.07184 -0.79375,1.07184 -0.48851,0 -0.79375,-0.13685 -0.79375,-0.35587 0,-0.19573 -0.21773,-0.55292 -0.48385,-0.79375 -0.94468,-0.85492 -2.69115,-0.36433 -2.69115,0.75595 0,0.76218 0.63383,1.21234 2.60077,1.84716 1.74422,0.56294 2.53246,1.61531 2.28033,3.04442 -0.19823,1.12363 -0.76494,1.80674 -1.89603,2.28548 -0.87355,0.36973 -2.76728,0.4283 -4.17569,0.12915 z m -31.61771,-0.79627 c 0,-0.54037 0.15435,-0.80325 0.52917,-0.90127 0.50387,-0.13176 0.52917,-0.36089 0.52917,-4.79336 0,-4.47859 -0.0201,-4.65498 -0.52917,-4.65498 -0.41446,0 -0.52917,-0.17638 -0.52917,-0.81374 v -0.81375 l 3.63802,0.0861 c 4.26039,0.10088 5.26267,0.45192 6.5435,2.29175 0.75447,1.08375 0.79865,1.28885 0.79796,3.70417 -6.1e-4,2.13985 -0.0973,2.7378 -0.59287,3.66604 -1.23202,2.30774 -2.91815,2.98819 -7.41004,2.99042 l -2.97657,0.001 z m 7.56321,-1.90415 c 1.00443,-0.94361 1.52467,-3.06553 1.19235,-4.86323 -0.1492,-0.80708 -0.39783,-1.70389 -0.55251,-1.99292 -0.45101,-0.84272 -1.69442,-1.32472 -3.41737,-1.32472 h -1.59061 l 0.008,4.41971 c 0.004,2.43084 0.0522,4.49158 0.10649,4.57943 0.0543,0.0878 0.88615,0.0782 1.84857,-0.0214 1.30227,-0.13479 1.91751,-0.33861 2.4053,-0.79686 z m -6.35368,-13.35915 c -0.50751,-0.5075 -0.52546,-2.31572 -0.0517,-5.20662 l 0.33604,-2.05052 h -0.74693 c -0.57055,0 -0.74694,-0.12496 -0.74694,-0.52917 0,-0.34525 0.17639,-0.52916 0.50753,-0.52916 0.93199,0 1.3445,-0.31215 1.34861,-1.0205 0.005,-0.89864 0.24235,-1.24242 1.0259,-1.4872 0.61668,-0.19265 0.62952,-0.16615 0.49553,1.02267 l -0.13757,1.22044 h 1.01022 c 1.09185,0 1.39956,0.24218 1.14629,0.90217 -0.11256,0.29332 -0.50215,0.42075 -1.28635,0.42075 h -1.12489 l -0.34979,2.04492 c -0.19239,1.1247 -0.35806,2.52368 -0.36816,3.10885 -0.0182,1.05581 -0.0108,1.06394 0.97111,1.06394 1.24421,0 1.48133,0.53315 0.46977,1.05625 -0.99477,0.51442 -1.97403,0.50783 -2.49867,-0.0168 z m 15.51877,-0.1145 c -1.1147,-0.67963 -1.4706,-1.63055 -1.26949,-3.39191 0.40574,-3.55361 3.17982,-5.95163 5.86123,-5.06669 2.05746,0.67903 1.98956,3.03114 -0.12109,4.19424 -0.63709,0.35107 -1.82772,0.71029 -2.64584,0.79825 -1.39253,0.14972 -1.49297,0.20787 -1.57346,0.91093 -0.0522,0.45589 0.1036,0.96048 0.39645,1.28409 0.4047,0.44718 0.69567,0.50833 1.80577,0.37949 0.72784,-0.0845 1.60895,-0.18606 1.95802,-0.22575 1.23438,-0.14035 0.83996,0.544 -0.63064,1.09422 -1.84476,0.69022 -2.67846,0.69532 -3.78095,0.0231 z m 3.86277,-5.2155 c 1.29329,-0.96465 0.95989,-2.19172 -0.59552,-2.19172 -0.93367,0 -2.32626,1.22856 -2.66556,2.35159 -0.18727,0.61982 -0.16487,0.6293 1.18114,0.49997 0.77878,-0.0748 1.67813,-0.36015 2.07994,-0.65984 z m -14.64455,4.88588 c 0.16838,-0.73834 1.7264,-10.46849 1.7264,-10.78172 0,-0.12531 -0.26667,-0.26587 -0.59261,-0.31238 -0.32594,-0.0465 -0.62992,-0.28041 -0.67551,-0.5198 -0.0653,-0.34277 0.17727,-0.45596 1.14143,-0.53264 0.67338,-0.0536 1.35684,-0.0155 1.5188,0.0846 0.26455,0.1635 -0.13335,3.29487 -0.76945,6.05539 -0.12166,0.52796 0.0556,0.41589 0.95231,-0.60206 1.78741,-2.02911 3.86748,-2.29243 4.52144,-0.57238 0.16864,0.44355 0.12136,1.51637 -0.14495,3.28947 -0.51737,3.44455 -0.51862,3.42848 0.26625,3.42848 0.73865,0 0.9121,0.64096 0.24294,0.89774 -0.49506,0.18997 -2.34877,0.21553 -2.52942,0.0349 -0.0691,-0.0691 0.10866,-1.62341 0.39512,-3.45394 0.47664,-3.0459 0.48504,-3.36401 0.099,-3.75005 -0.65023,-0.65023 -1.94478,0.011 -2.86623,1.46393 -0.83429,1.31555 -1.11783,2.10491 -1.5605,4.34442 -0.28465,1.44006 -0.3424,1.52135 -1.08075,1.52135 -0.67276,0 -0.76136,-0.0819 -0.64427,-0.59531 z m -5.94652,-16.04258 c 0,-0.54037 0.15435,-0.80325 0.52917,-0.90127 0.50401,-0.1318 0.52917,-0.36089 0.52917,-4.81813 0,-4.45723 -0.0252,-4.68632 -0.52917,-4.81812 -0.37462,-0.098 -0.52917,-0.3609 -0.52917,-0.9003 v -0.76191 l 3.50573,0.0727 c 3.63561,0.0754 4.55685,0.31224 5.52134,1.41964 1.06739,1.22554 0.87583,3.42422 -0.40446,4.64241 l -0.83382,0.79337 1.08888,2.15737 c 0.81111,1.60704 1.23902,2.17946 1.67745,2.24397 0.46579,0.0685 0.57153,0.23412 0.50684,0.79375 -0.0815,0.70461 -0.0898,0.70715 -2.33071,0.70715 h -2.24896 l -0.0837,-0.7276 c -0.0586,-0.50899 0.0361,-0.7276 0.31512,-0.7276 0.72131,0 0.72336,-0.49001 0.008,-1.90831 -0.83787,-1.66115 -0.99811,-1.78653 -2.28989,-1.79181 l -0.99218,-0.004 v 1.85208 c 0,1.6757 0.0504,1.85209 0.52916,1.85209 0.41158,0 0.52917,0.17638 0.52917,0.79375 v 0.79375 h -2.24896 -2.24896 z m 6.7589,-6.7657 c 0.73324,-0.73324 0.87334,-2.11822 0.29438,-2.91 -0.27597,-0.37741 -0.73274,-0.49182 -2.05052,-0.51359 l -1.69547,-0.028 -0.0798,1.69192 c -0.10894,2.31083 -0.0462,2.40912 1.5387,2.40912 1.07338,0 1.47371,-0.13047 1.99267,-0.64943 z m 6.99944,7.34174 c -1.42668,-0.52153 -2.38399,-2.3519 -2.37544,-4.54181 0.007,-1.85262 0.70174,-3.44878 1.88362,-4.32903 2.33189,-1.73676 5.78348,-0.79946 5.78348,1.57054 0,2.15388 -1.21735,3.0471 -4.89479,3.59154 -0.6637,0.0983 -0.57187,0.87947 0.20134,1.7128 0.62847,0.67735 2.09908,0.80163 3.25478,0.27506 0.60751,-0.2768 0.75281,-0.25199 1.07078,0.18286 0.51866,0.7093 0.47012,0.86469 -0.41272,1.32123 -0.75984,0.39292 -3.64937,0.5318 -4.51105,0.21681 z m 2.20733,-5.66315 c 0.9326,-0.42492 1.29379,-1.35272 0.80068,-2.05673 -0.73439,-1.04849 -2.28341,-0.56313 -2.89812,0.90808 -0.20596,0.49293 -0.37448,1.01913 -0.37448,1.16932 0,0.36314 1.66002,0.34925 2.47192,-0.0207 z m 5.69881,5.45231 c -1.72633,-0.93815 -2.26304,-4.67107 -1.02635,-7.13849 0.92543,-1.8464 1.95114,-2.38536 4.49729,-2.36312 3.21044,0.028 3.175,-0.0208 3.175,4.37713 0,3.49712 0.0317,3.72791 0.52916,3.85801 0.37743,0.0987 0.52917,0.3609 0.52917,0.91435 0,0.76569 -0.018,0.77515 -1.3605,0.7139 -1.0599,-0.0484 -1.38824,-0.16817 -1.48607,-0.54225 -0.12495,-0.47784 -0.59301,-0.68151 -0.59301,-0.25805 0,0.7791 -3.05915,1.09367 -4.26469,0.43852 z m 3.83213,-1.47359 c 0.67683,-0.53239 0.69714,-0.63226 0.69714,-3.4276 v -2.87922 l -0.86265,-0.16183 c -2.00994,-0.37707 -3.1061,0.93375 -3.1061,3.71437 0,2.8716 1.50824,4.14134 3.27161,2.75428 z m 6.25339,1.53457 c -2.2196,-1.10372 -2.3855,-6.70159 -0.25182,-8.49696 0.99332,-0.83583 2.69152,-1.31805 3.86583,-1.09775 l 0.88391,0.16582 v -1.07687 c 0,-0.90521 -0.10544,-1.11696 -0.66146,-1.32836 -0.46449,-0.1766 -0.66146,-0.4504 -0.66146,-0.91949 0,-0.64577 0.0572,-0.66801 1.71979,-0.66801 h 1.71979 v 6.08542 c 0,5.90903 0.0153,6.08542 0.52917,6.08542 0.40446,0 0.52917,0.17638 0.52917,0.74847 0,0.72371 -0.0481,0.75042 -1.45521,0.80734 -1.3101,0.053 -1.45521,0.005 -1.45521,-0.48388 0,-0.6773 -0.13992,-0.67952 -0.8547,-0.0136 -0.66445,0.61902 -2.83498,0.72592 -3.9078,0.19245 z m 4.0349,-1.72598 c 0.38766,-0.33538 0.46302,-0.86562 0.46302,-3.25799 v -2.85742 l -0.90304,-0.16941 c -1.2503,-0.23456 -1.957,0.0502 -2.55381,1.02895 -0.66162,1.08506 -0.71329,4.00289 -0.0867,4.89744 0.758,1.08219 2.06778,1.23459 3.08055,0.35843 z"
       id="path1" /></g></svg>
